<?xml version="1.0" encoding="UTF-8" standalone="no"?>
<!DOCTYPE svg PUBLIC "-//W3C//DTD SVG 1.1//EN" "http://www.w3.org/Graphics/SVG/1.1/DTD/svg11.dtd">
<svg width="100%" height="100%" viewBox="0 0 663 454" version="1.1" xmlns="http://www.w3.org/2000/svg" xmlns:xlink="http://www.w3.org/1999/xlink" xml:space="preserve" xmlns:serif="http://www.serif.com/" style="fill-rule:evenodd;clip-rule:evenodd;stroke-linecap:round;stroke-linejoin:round;stroke-miterlimit:1.5;">
    <g transform="matrix(1,0,0,1,-1281.57,-853.345)">
        <g transform="matrix(1,0,0,1,158.858,0)">
            <circle cx="1342.37" cy="1079.91" r="164.858" style="fill:none;stroke:rgb(80,110,175);stroke-width:4px;"/>
        </g>
        <g transform="matrix(0.553491,0,0,0.553491,1129.74,482.23)">
            <path d="M1411.03,1336.01C1335.95,1429.57 1220.67,1489.5 1091.5,1489.5C865.491,1489.5 682,1306.01 682,1080C682,853.991 865.491,670.5 1091.5,670.5C1220.67,670.5 1335.95,730.434 1411.03,823.986C1383.14,814.277 1353.18,809 1322,809C1172.43,809 1051,930.431 1051,1080C1051,1229.57 1172.43,1351 1322,1351C1353.18,1351 1383.14,1345.72 1411.03,1336.01Z" style="fill:rgb(180,240,200);"/>
        </g>
        <g transform="matrix(2.64606e-17,0.432135,-0.432135,2.64606e-17,2065.54,599.25)">
            <path d="M1112.5,1292C823.021,1292 588,1056.98 588,767.5C877.479,767.5 1112.5,1002.52 1112.5,1292ZM1112.5,1292C1112.5,1002.52 1347.52,767.5 1637,767.5C1637,1056.98 1401.98,1292 1112.5,1292Z" style="fill:rgb(80,110,175);"/>
        </g>
        <g transform="matrix(1.92462e-17,0.314315,-0.314315,1.92462e-17,1583.6,730.325)">
            <path d="M1112.5,243C1112.5,532.479 877.479,767.5 588,767.5C588,478.021 823.021,243 1112.5,243ZM1637,767.5C1347.52,767.5 1112.5,532.479 1112.5,243C1401.98,243 1637,478.021 1637,767.5Z" style="fill:rgb(176,172,255);"/>
        </g>
        <g transform="matrix(0.653932,0,0,0.653932,429.496,346.615)">
            <path d="M1492,1121.5C1447.83,1121.5 1410.7,1151.87 1400.36,1192.84C1400.03,1194.15 1398.85,1195.07 1397.5,1195.07C1396.15,1195.07 1394.97,1194.15 1394.64,1192.84C1384.3,1151.87 1347.17,1121.5 1303,1121.5C1347.17,1121.5 1384.3,1091.13 1394.64,1050.16C1394.97,1048.85 1396.15,1047.93 1397.5,1047.93C1398.85,1047.93 1400.03,1048.85 1400.36,1050.16C1410.7,1091.13 1447.83,1121.5 1492,1121.5Z" style="fill:rgb(80,110,175);"/>
        </g>
        <g transform="matrix(0.899057,0,0,0.899057,602.912,71.6154)">
            <path d="M1492,1121.5C1439.84,1121.5 1397.5,1163.84 1397.5,1216C1397.5,1163.84 1355.16,1121.5 1303,1121.5C1355.16,1121.5 1397.5,1079.16 1397.5,1027C1397.5,1079.16 1439.84,1121.5 1492,1121.5Z" style="fill:rgb(176,172,255);"/>
        </g>
    </g>
</svg>
