<?xml version="1.0" encoding="UTF-8" standalone="no"?>
<!DOCTYPE svg PUBLIC "-//W3C//DTD SVG 1.1//EN" "http://www.w3.org/Graphics/SVG/1.1/DTD/svg11.dtd">
<svg width="100%" height="100%" viewBox="0 0 272 272" version="1.1" xmlns="http://www.w3.org/2000/svg" xmlns:xlink="http://www.w3.org/1999/xlink" xml:space="preserve" xmlns:serif="http://www.serif.com/" style="fill-rule:evenodd;clip-rule:evenodd;stroke-linejoin:round;stroke-miterlimit:2;">
    <g transform="matrix(1,0,0,1,-3204.32,-209.927)">
        <g transform="matrix(0.598641,0,0,0.598641,1228.87,-27.6139)">
            <g transform="matrix(2.64606e-17,0.432135,-0.432135,2.64606e-17,4084.86,142.705)">
                <path d="M1112.5,1292C823.021,1292 588,1056.98 588,767.5C877.479,767.5 1112.5,1002.52 1112.5,1292ZM1112.5,1292C1112.5,1002.52 1347.52,767.5 1637,767.5C1637,1056.98 1401.98,1292 1112.5,1292Z" style="fill:rgb(80,110,175);"/>
            </g>
            <g transform="matrix(-2.64606e-17,0.432135,0.432135,2.64606e-17,2968.23,142.705)">
                <path d="M1112.5,1292C823.021,1292 588,1056.98 588,767.5C877.479,767.5 1112.5,1002.52 1112.5,1292ZM1112.5,1292C1112.5,1002.52 1347.52,767.5 1637,767.5C1637,1056.98 1401.98,1292 1112.5,1292Z" style="fill:rgb(80,110,175);"/>
            </g>
        </g>
    </g>
</svg>
